<svg id="Capa_1" enable-background="new 0 0 531.765 531.765" height="512" viewBox="0 0 531.765 531.765" width="512" xmlns="http://www.w3.org/2000/svg"><path d="m401.68 166.176c-13.08 0-25.559 3.927-36.092 11.197v-27.815c0-82.471-67.087-149.558-149.559-149.558s-149.558 67.087-149.558 149.559v332.353c0 27.491 22.362 49.853 49.853 49.853h199.412c27.491 0 49.853-22.362 49.853-49.853v-126.06l81.076-81.076c12.009-12.009 18.63-27.994 18.63-44.985-.001-35.085-28.53-63.615-63.615-63.615zm-85.945 332.353h-199.411c-9.169 0-16.618-7.449-16.618-16.618v-16.618h232.647v16.618c0 9.17-7.449 16.618-16.618 16.618zm107.431-247.252-85.944 85.944c-3.116 3.116-4.868 7.335-4.868 11.749v83.088h-232.648v-282.5c0-64.134 52.19-116.324 116.323-116.324s116.324 52.19 116.324 116.324v66.471c0 6.718 4.041 12.788 10.256 15.352 6.199 2.58 13.356 1.168 18.111-3.603l19.474-19.474c5.647-5.647 13.486-8.893 21.486-8.893 16.747 0 30.379 13.632 30.379 30.379 0 8.002-3.246 15.84-8.893 21.487z"/></svg>