<?xml version="1.0" encoding="iso-8859-1"?>
<!-- Generator: Adobe Illustrator 19.0.0, SVG Export Plug-In . SVG Version: 6.00 Build 0)  -->
<svg version="1.1" id="Layer_1" xmlns="http://www.w3.org/2000/svg" xmlns:xlink="http://www.w3.org/1999/xlink" x="0px" y="0px"
	 viewBox="0 0 469.333 469.333" style="enable-background:new 0 0 469.333 469.333;" xml:space="preserve">
<g>
	<g>
		<path d="M456.833,12.483c-16.625-16.647-43.708-16.637-60.333-0.01c-5.834,5.834-9.792,13.178-11.438,21.241
			c-2.19,10.601-5.801,24.024-13.904,34.479c-18.914-13.788-39.734-20.822-51.701-8.831L59.375,319.456
			c-11.964,11.972-4.947,32.804,8.826,51.713c-10.465,8.115-23.87,11.717-34.492,13.897c-8.062,1.667-15.396,5.625-21.208,11.449
			C4.437,404.568,0,415.287,0,426.684c0,11.397,4.438,22.116,12.5,30.169c8.313,8.324,19.25,12.48,30.167,12.48
			s21.854-4.157,30.167-12.47c5.833-5.834,9.792-13.178,11.438-21.241c2.19-10.601,5.801-24.023,13.904-34.479
			c12.159,8.859,25.099,14.967,35.992,14.967c6.042,0,11.438-1.865,15.708-6.136L409.958,149.88
			c11.964-11.972,4.947-32.804-8.826-51.713c10.465-8.115,23.87-11.717,34.492-13.897c8.063-1.667,15.396-5.625,21.208-11.449
			c8.063-8.063,12.5-18.772,12.5-30.169C469.333,31.245,464.896,20.536,456.833,12.483z M63.375,431.323
			c-0.792,3.948-2.75,7.552-5.625,10.427c-8.333,8.313-21.833,8.313-30.167,0c-4.042-4.031-6.25-9.385-6.25-15.083
			c0-5.698,2.208-11.052,6.25-15.083c2.875-2.865,6.479-4.813,10.437-5.635c12.813-2.635,29.208-7.031,43.083-17.729
			C70.417,402.083,66.021,418.479,63.375,431.323z M394.875,134.802L135.271,394.531c-3.438,1.375-19.479-3.573-38.188-22.281
			c-18.75-18.74-23.542-34.917-22.625-37.719L334.063,74.802c0.333-0.125,0.771-0.188,1.313-0.188
			c5.125,0,19.958,5.552,36.875,22.469C391,115.823,395.792,132,394.875,134.802z M441.75,57.75
			c-2.875,2.865-6.479,4.813-10.438,5.635c-12.813,2.635-29.188,7.031-43.063,17.708c10.667-13.865,15.063-30.25,17.708-43.083
			c0.792-3.948,2.75-7.552,5.625-10.427c4.167-4.156,9.625-6.24,15.083-6.24c5.458,0,10.917,2.083,15.083,6.24
			c4.042,4.031,6.25,9.385,6.25,15.083S445.771,53.719,441.75,57.75z"/>
	</g>
</g>
<g>
</g>
<g>
</g>
<g>
</g>
<g>
</g>
<g>
</g>
<g>
</g>
<g>
</g>
<g>
</g>
<g>
</g>
<g>
</g>
<g>
</g>
<g>
</g>
<g>
</g>
<g>
</g>
<g>
</g>
</svg>
