<svg id="Capa_1" enable-background="new 0 0 512 512" height="512" viewBox="0 0 512 512" width="512" xmlns="http://www.w3.org/2000/svg"><g><path d="m466.245 319.031v-89.351c28.331-18.253 45.755-49.966 45.755-83.799 0-54.921-44.682-99.603-99.603-99.603-12.586 0-311.575 0-312.795 0-15.434 0-30.232 3.437-43.983 10.215-3.715 1.831-5.242 6.328-3.411 10.043 1.832 3.716 6.329 5.243 10.043 3.411 11.671-5.752 24.237-8.669 37.352-8.669h141.822c46.808 0 84.603 38.223 84.603 84.603 0 29.977-16.106 57.996-42.034 73.125-2.304 1.344-3.72 3.811-3.72 6.478v77.327c-4.849 0-11.978-.049-13.001-.049v-90.121c27.203-10.586 45.756-37.271 45.756-66.76 0-39.482-32.121-71.603-71.603-71.603h-141.822c-39.483 0-71.604 32.121-71.604 71.603 0 29.489 18.552 56.174 45.755 66.76v126.747c0 4.142 3.357 7.5 7.5 7.5h76.009c-2.775 4.105-5.276 8.442-7.454 13h-81.069c-4.403 0-7.986-3.583-7.986-7.986v-126.418c0-2.667-1.416-5.134-3.72-6.478-25.929-15.129-42.035-43.149-42.035-73.125 0-20.973 7.729-41.091 21.764-56.648 2.775-3.076 2.531-7.818-.545-10.593s-7.816-2.531-10.593.545c-16.525 18.318-25.626 42.005-25.626 66.696 0 33.833 17.424 65.546 45.755 83.799v122.221c0 12.675 10.312 22.986 22.986 22.986h75.336c-2.649 8.99-4.077 18.498-4.077 28.335 0 34.462 28.037 62.5 62.5 62.5h195c4.143 0 7.5-3.358 7.5-7.5s-3.357-7.5-7.5-7.5h-195c-26.191 0-47.5-21.309-47.5-47.5 0-43.97 33.437-80.383 76.353-84.926v58.512c0 13.086 10.646 23.732 23.732 23.732s23.731-10.646 23.731-23.732v-58.997h23.452v59.046c0 13.086 10.646 23.732 23.731 23.732s23.731-10.646 23.731-23.732v-59.046h23.354v58.997c0 13.086 10.646 23.732 23.732 23.732s23.731-10.646 23.731-23.732v-58.521c.112.012.223.027.334.039 42.804 4.657 76.119 40.989 76.119 84.896 0 26.191-21.309 47.5-47.5 47.5h-17c-4.143 0-7.5 3.358-7.5 7.5s3.357 7.5 7.5 7.5h17c34.463 0 62.5-28.038 62.5-62.5 0-35.223-18.234-66.264-45.755-84.191zm-377.49 12.856v-124.593c0-3.314-2.175-6.235-5.35-7.185-23.79-7.121-40.405-29.421-40.405-54.228 0-31.211 25.393-56.603 56.604-56.603h141.822c31.211 0 56.603 25.392 56.603 56.603 0 24.808-16.616 47.107-40.406 54.229-3.175.95-5.35 3.871-5.35 7.185v95.468c-19.978 0-11.303-.016-15.162.108-.23.008-.461.016-.691.025-25.88.996-49.274 11.668-66.729 28.992h-80.936zm175.061 44.921c0 4.815-3.917 8.732-8.731 8.732-4.815 0-8.732-3.917-8.732-8.732v-58.997h17.464v58.997zm31.457-147.128c28.331-18.252 45.754-49.965 45.754-83.799 0-34.374-17.764-66.332-47.098-84.603h118.469c46.65 0 84.603 37.953 84.603 84.603 0 29.976-16.106 57.996-42.035 73.125-2.304 1.344-3.72 3.811-3.72 6.478v85.477c-12.838-5.516-27.142-8.199-38.196-8.199 0 0-39.371.049-117.775.049v-73.131zm39.458 147.177c0 4.815-3.917 8.732-8.731 8.732s-8.731-3.917-8.731-8.732v-59.046h17.463v59.046zm62.086 8.683c-4.815 0-8.732-3.917-8.732-8.732v-58.997h17.464v58.997c0 4.815-3.917 8.732-8.732 8.732z"/></g></svg>