<svg id="Layer_1" enable-background="new 0 0 512.018 512.018" height="512" viewBox="0 0 512.018 512.018" width="512" xmlns="http://www.w3.org/2000/svg"><g><path d="m495.302 22.6c-13.938-13.937-35.999-21.728-63.798-22.531-25.458-.729-55.833 4.358-87.813 14.73-43.069 13.967-86.396 36.155-127.033 64.671l55.423 55.424c5.858 5.857 5.858 15.355 0 21.213-2.929 2.929-6.769 4.394-10.606 4.394-3.839 0-7.678-1.464-10.606-4.394l-58.546-58.546c-13.584 10.684-26.78 22.067-39.46 34.09l54.735 54.735c5.858 5.857 5.858 15.355 0 21.213-2.929 2.929-6.768 4.394-10.606 4.394s-7.678-1.465-10.606-4.394l-54.735-54.735c-12.023 12.68-23.406 25.876-34.09 39.46l58.546 58.546c5.858 5.857 5.858 15.355 0 21.213-2.929 2.929-6.768 4.394-10.606 4.394s-7.678-1.465-10.606-4.394l-55.424-55.423c-28.516 40.635-50.704 83.962-64.671 127.031-10.371 31.98-15.465 62.345-14.73 87.813.803 27.799 8.594 49.86 22.531 63.798 11.124 11.124 25.292 16.716 42.269 16.716 5.535 0 11.371-.595 17.494-1.786 20.48-3.983 43.967-14.516 71.802-32.196 46.446-29.504 105.225-79.691 174.701-149.169 69.478-69.477 119.665-128.255 149.169-174.701 17.681-27.835 28.213-51.321 32.196-71.802 4.844-24.906-.179-45.013-14.93-59.764z"/></g></svg>